<!-- icon666.com - MILLIONS OF FREE VECTOR ICONS --><svg version="1.1" id="Capa_1" xmlns="http://www.w3.org/2000/svg" xmlns:xlink="http://www.w3.org/1999/xlink" x="0px" y="0px" viewBox="0 0 466.101 466.101" style="enable-background:new 0 0 466.101 466.101;" xml:space="preserve"><g><path d="M377.708,136.56c0.89,13.32-3.43,25.67-15.93,33.11c-11.01,6.56-22.82,9.99-35.84,7.65c-4.64-0.84-9.34-1.31-15.19-2.11 c1.03,3.86,1.8,7.24,2.85,10.53c2.74,8.57,3.1,17.13,1.97,26.14c-1.28,10.24-6.17,17.9-13.57,24.43 c-13.1,11.57-30.87,11.68-44.26,0.22c-2.49-2.13-4.76-4.51-8.29-7.88c-2.66,18.93-1.36,36.66-1.71,55.56 c4.46-1.97,7.68-3.4,11.23-4.97c-0.71-9.08,0.13-17.4,8.72-22.45c10-5.88,20.61-11.42,32.25-7.01c14.42,5.47,28.94,8.15,44.26,7.08 c0.96-0.07,1.98,0.71,2.82,1.04c0.39,0.89,1.1,1.7,0.92,2.18c-6.06,16.55-13.47,31.42-32.49,37.3 c-19.62,6.07-36.88,0.32-54.12-7.72c-1.28-0.6-2.44-1.44-3.94-2.34c-2.89,1.9-5.6,3.68-8.58,5.63c1.03,7.84,2.01,15.4,3.05,23.41 c21.01,0.62,41.54-0.21,61.97-3.45c5.82-0.91,11.68-1.55,17.55-2.06c6.47-0.56,9.91,1.34,11.74,7.42 c4.02,13.36,4.05,26.99,0.15,40.3c-0.93,3.15-5.14,5.35-7.39,7.54c0.36,21.79,0.8,43.47,1,65.15c0.06,5.87-0.51,11.77-1.03,17.63 c-0.77,8.53-5.98,13.19-13.98,14.85c-5.39,1.12-10.9,2.38-16.36,2.36c-22.1-0.09-44.2-0.69-66.3-1.02 c-11.76-0.18-23.52-0.1-35.27-0.3c-13.67-0.22-16.54-2.25-17.78-15.42c-1.99-21.22-3.24-42.51-4.63-63.78 c-0.36-5.46-0.06-10.97-0.06-17.67c-11.73-0.33-15.22-6.82-15.66-16.08c-0.3-6.24-0.97-12.47-1.28-18.72 c-0.48-9.69,2.66-13.32,12.27-14.25c2.56-0.25,5.17,0.03,7.74-0.11c17.96-0.94,35.91-1.93,53.82-2.9 c2.39-20.71,1.56-16.78-13.38-25.64c-14.18,16.27-33.03,19.17-53.24,17.31c-9.95-0.91-18.65-5.7-24.93-13.03 c-8.06-9.41-14.72-20.03-23.06-31.61c4.35-1.69,7.12-2.97,10.01-3.85c8.75-2.67,17.82-4.51,26.28-7.89 c16.93-6.79,32.26-5.8,46.13,6.83c6.79,6.17,13.84,11.8,18.11,20.52c1.9,3.9,7.54,5.97,12.32,9.49 c1.26-21.67,2.42-41.56,3.64-62.67c-5.97,4.55-10.63,8.65-15.81,11.94c-18.39,11.68-41.29,0.65-43.21-21.11 c-0.7-7.9,0.65-15.97,1.11-24.71c-2.94,1.79-5.66,3.46-8.4,5.09c-10.81,6.42-21.98,11.71-34.54,14.19 c-7.86,1.55-14.63-0.17-21.17-3.67c-14.34-7.67-18.72-21.92-9.63-35.39c5.89-8.72,14.01-15.99,21.4-23.64 c3.27-3.39,7.21-6.13,12.45-10.5c-4.13-0.26-6.39-0.63-8.64-0.51c-11.69,0.63-22.72-1.39-32.81-7.62 c-12.73-7.86-16.28-19.16-8.9-32.06c11.58-20.2,29.18-30.53,52.79-29.78c2.57,0.08,5.14,0.41,7.71,0.49 c0.68,0.03,1.37-0.41,2.15-0.67c-1.55-4.87-3.79-9.64-4.46-14.62c-0.71-5.32-0.54-10.95,0.31-16.27 c1.21-7.59,6.88-11.09,14.06-11.87c11.08-1.22,21.26,1.2,29.91,8.61c4.67,3.99,9.27,8.07,14.93,13.01c0.45-3.95,0.69-6.7,1.09-9.44 c1.99-13.44,9.85-19.71,23.21-16.72c6.93,1.55,13.33,5.72,19.79,9.04c2.17,1.11,3.82,3.23,6.49,5.57c1.11-3.42,2.11-5.99,2.79-8.65 c3.71-14.57,14.08-22.2,27.8-25.4c15.62-3.65,31.84,9.3,33.15,25.92c0.43,5.43,0.07,10.93,0.07,16.41 c4.92-1.1,10.15-3.04,15.46-3.31c10.94-0.55,20.43,2.77,26,13.18c5.09,9.52,3.38,18.8-2.34,27.11 c-3.92,5.69-9.12,10.52-13.97,15.51c-2.67,2.76-5.79,5.07-9.83,8.55c6.63,2.02,11.5,3.33,16.24,4.99 C368.518,113.57,376.798,123.03,377.708,136.56z M357.638,161.84c12.95-8.97,14.46-30.57,2.58-40.37 c-3.54-2.93-8.26-4.67-12.7-6.23c-12.72-4.46-25.68-3.24-38.84-0.55c-4.74,12.35-9.58,24.96-14.39,37.5 C305.728,168.57,336.038,176.8,357.638,161.84z M358.388,67.84c2.51-9.84-3.88-19.03-13.97-19.47c-4.93-0.21-10.25,0.94-14.85,2.81 c-9.54,3.87-16.02,11.46-20.67,19.44c1.57,12,2.93,22.44,4.33,33.21c1.76-0.14,3.68,0.09,5.33-0.47 c14.39-4.84,25.98-13.66,35.07-25.69C355.788,74.81,357.498,71.31,358.388,67.84z M336.108,265.14 c-12.8,0.62-24.25-3.86-36.04-8.01c-11.94-4.21-23.23,0.1-32.3,8.82c-3.13,3.01-5.14,7.08-2.41,11.61 c6.82-0.14,13.52-2.86,20.93,2.23c-5.68,1.92-10.03,3.4-16.12,5.46C305.688,301.41,332.188,287.18,336.108,265.14z M332.118,355.48 c3.88-12.56,3.46-23.91,1.35-36.25c-6.66,1.34-11.29,2.89-15.97,3.1c-26.45,1.21-52.91,2.03-79.36,3.09 c-18.37,0.74-36.75,1.58-55.11,2.54c-2.4,0.12-4.76,1.22-6.58,1.72c0,7.19,0,13.54,0,22.02c4.41-5.2,7.35-8.66,10.29-12.13 c0.42,0.3,0.84,0.6,1.26,0.9c-2.93,5.6-5.86,11.2-8.84,16.89c1.7,0.59,2.78,1.21,2.98,0.99c4.54-4.73,8.99-9.56,13.45-14.38 c0.33,0.2,0.66,0.4,0.99,0.59c-1.81,4.14-3.63,8.27-5.82,13.25c8.84-0.15,16.07-0.98,20.75-8.77c1.7-2.83,4.52-4.97,6.83-7.42 c0.37,0.32,0.74,0.64,1.11,0.96c-2.23,4.22-4.47,8.43-6.7,12.64c8.34-2.7,11.12-11.74,20.9-15.31c-4.33,6.15-7.4,10.51-11.23,15.95 c6.55,0,11.96,1.13,16.56-0.31c4.73-1.49,8.67-5.5,14.59-9.51c-2.07,4.36-3.18,6.7-4.3,9.05c0.49,0.41,0.98,0.81,1.47,1.22 c5.49-4.4,10.97-8.79,16.45-13.19c0.39,0.37,0.78,0.74,1.17,1.11c-2.7,3.56-5.41,7.11-8.43,11.07c6.04,2.11,10.27,1.24,13.88-3.68 c2.39-3.26,5.68-5.87,8.57-8.77c0.57,0.5,1.14,1,1.71,1.5c-2.04,3.59-4.07,7.17-6.32,11.13 C296.248,355.48,314.008,355.48,332.118,355.48z M326.768,405.83c0.02-10.67-0.34-21.35-0.78-32.02c-0.12-2.76-1.18-5.48-1.74-7.91 c-9.05,0-17.13-0.07-25.2,0.02c-8.09,0.1-16.19,0.61-24.28,0.5c-20.61-0.28-41.22-0.7-61.82-1.32c-4.03-0.13-6.67,1.59-9.1,4.2 c0.03-0.04,0.05-0.08,0.07-0.12c-0.11,0.13-0.23,0.25-0.34,0.38c-0.68-1.32-1.46-3.82-2.03-3.77c-4.3,0.38-8.55,1.25-13.9,2.15 c1.15,5.13,2.18,9.69,3.45,15.33c4.93-5.41,8.72-9.58,12.48-13.71c0,0.01,0.01,0.01,0.01,0.02c0.09-0.1,0.17-0.19,0.26-0.28 c-3.33,5.96-6.58,11.97-10.06,17.84c-2.11,3.56-4.33,6.89,0.27,10.13c5.6-6.11,11.08-12.09,16.55-18.06 c0.59,0.5,1.17,1.01,1.75,1.51c-3.66,4.94-7.23,9.94-11,14.79c-7.34,9.44-7.39,9.41-6.32,15.93c6.64-6.72,11.12-15,18.52-20.32 c-3.48,12.7-16.59,19.9-17.32,33.94c6.25-7.79,12.49-15.57,18.74-23.36c0.71,0.55,1.42,1.1,2.13,1.65 c-3.68,5.28-7.97,10.25-10.88,15.93c-2.92,5.68-10.89,8.37-10.26,17.72c8.59-10.02,16.3-19,24-27.99c0.62,0.49,1.25,0.98,1.87,1.47 c-5.87,10.37-13.1,19.99-21.33,28.54c-3.68,3.82-3.31,6.34-1.75,11.24c8.75-10.35,16.88-19.98,25.02-29.61 c0.66,0.49,1.32,0.98,1.98,1.47c-7.15,10.22-14.31,20.44-21.46,30.65c0.43,0.74,0.86,1.47,1.29,2.2 c12.4-1.78,26.16,6.16,37.33-7.36c-0.18,2.64-0.32,4.65-0.52,7.62c16.66,0,32.8,0.16,48.92-0.07c7.7-0.11,15.44-0.57,23.06-1.57 c9.88-1.3,10.79-1.93,11.48-11.46C326.728,430.07,326.738,417.94,326.768,405.83z M314.028,37.51c3.54-11.76-2-23.9-11.63-28.09 c-7.87-3.42-20.56,1.46-26.96,10.37c-0.21,0.3-0.43,0.6-0.59,0.93c-4.64,9.89-6.25,20.39-7.81,31.87 c14.76-4.48,25.46-0.51,36.01,11.8C307.228,54.34,311.418,46.17,314.028,37.51z M304.788,218.15c7.14-18.06-1.21-44.47-17.89-55.94 c-6.44,6.94-13.41,13.55-19.2,21.06c-3.39,4.4-6.7,7.54-13.39,7.43c0,4.3-0.1,7.21,0.03,10.11c0.19,4.03,0.29,8.1,0.88,12.09 c1.96,13.14,10.86,22.11,22.78,23.24C287.408,237.02,300.918,227.95,304.788,218.15z M299.338,108.11 c4.06-13.29,3.04-25.97-5.44-37.75c-7.93-11.02-14.15-12.86-26.26-6.98c-10.58,5.14-16.92,13.69-19.75,24.33 c-1.65,0.33-2.38,0.67-3.06,0.58c-1.07-0.14-2.22-0.37-3.15-0.9c-11.86-6.73-24.84-6.25-37.65-5.28 c-14.47,1.09-25.9,9.9-28.43,22.3c-2.99,14.62,0.05,28.26,12.63,37.55c6.05,4.48,13.4,7.88,20.68,9.87 c14.81,4.04,28,10.98,40.57,19.45c2.35,1.59,4.68,3.21,7.06,4.85c4.39-3.84,8.14-7.33,12.12-10.56 c9.37-7.62,16.15-17.09,20.37-28.34C292.648,127.59,296.328,117.95,299.338,108.11z M256.528,53.83 c0.35-14.83-9.77-25.91-24.51-27.52c-7.85-0.86-11.95,1.58-13.57,9.39c-0.95,4.59-1.02,9.57-0.36,14.22 c1.07,7.6,3.06,15.06,4.77,23.1c6.14,1.26,12.18,2.5,18.35,3.77c4.41-5.3,8.39-9.62,11.78-14.36 C254.758,59.95,256.458,56.74,256.528,53.83z M218.638,229.73c18.63-11.54,22.94-29.99,25.38-50.82 c-11.76-6.21-23.02-12.14-35.7-18.83c-4.94,10.7-9.24,19.22-12.82,28.03c-3.62,8.93-5.41,18.38-4.4,28.07 C192.568,230.26,206.728,237.11,218.638,229.73z M213.298,71.07c-3.04-5.89-5.63-12.81-9.82-18.57c-5.83-8.01-12.92-15.26-22.42-19 c-6.49-2.55-13.98-5-19.89,0.28c-5.89,5.26-4.07,12.76-2.62,19.69c2.71,13.03,13.5,19.39,20.33,26.37 C191.118,76.72,201.648,74.04,213.298,71.07z M216.138,276.83c-5.92-5.43-10.59-9.77-15.34-14.04c-9.26-8.33-20.3-8.4-31.19-5.23 c-10.72,3.11-20.99,7.74-31.43,11.69c17.36,31.65,56.93,40.97,74.53,16.58c-6.89-0.67-13.44-1.3-21.65-2.09 C198.518,275.26,207.068,279.57,216.138,276.83z M173.668,184.91c8.79-7.44,18.52-14.58,22.09-24.64 c-10.1-9.48-19.31-18.13-30.48-28.62c-8.53,6.11-18.48,12.38-27.38,19.9c-7.51,6.34-14.29,13.73-20.48,21.39 c-5.09,6.32-6.89,13.96-1.82,21.5c4.38,6.53,13.8,9.46,22.6,7.5C151.358,199.02,163.498,193.51,173.668,184.91z M164.118,122.45 c0.51-0.12,0.83-1.12,1.56-2.16c-3.3-11.95,1.42-22.63,7.49-32.77c-23.16-22.48-60.35-12.99-73.97,14.05 c-4.6,9.15-2.33,16.57,6.43,21.6c4.08,2.34,8.67,4.23,13.26,5.15C134.538,131.46,149.218,125.84,164.118,122.45z"></path><path style="fill:#FBB03B;" d="M360.218,121.47c11.88,9.8,10.37,31.4-2.58,40.37c-21.6,14.96-51.91,6.73-63.35-9.65 c4.81-12.54,9.65-25.15,14.39-37.5c13.16-2.69,26.12-3.91,38.84,0.55C351.958,116.8,356.678,118.54,360.218,121.47z"></path><path style="fill:#FBB03B;" d="M344.418,48.37c10.09,0.44,16.48,9.63,13.97,19.47c-0.89,3.47-2.6,6.97-4.76,9.83 c-9.09,12.03-20.68,20.85-35.07,25.69c-1.65,0.56-3.57,0.33-5.33,0.47c-1.4-10.77-2.76-21.21-4.33-33.21 c4.65-7.98,11.13-15.57,20.67-19.44C334.168,49.31,339.488,48.16,344.418,48.37z"></path><path style="fill:#006837;" d="M300.068,257.13c11.79,4.15,23.24,8.63,36.04,8.01c-3.92,22.04-30.42,36.27-65.94,20.11 c6.09-2.06,10.44-3.54,16.12-5.46c-7.41-5.09-14.11-2.37-20.93-2.23c-2.73-4.53-0.72-8.6,2.41-11.61 C276.838,257.23,288.128,252.92,300.068,257.13z"></path><path style="fill:#F57547;" d="M333.468,319.23c2.11,12.34,2.53,23.69-1.35,36.25c-18.11,0-35.87,0-54.35,0 c2.25-3.96,4.28-7.54,6.32-11.13c-0.57-0.5-1.14-1-1.71-1.5c-2.89,2.9-6.18,5.51-8.57,8.77c-3.61,4.92-7.84,5.79-13.88,3.68 c3.02-3.96,5.73-7.51,8.43-11.07c-0.39-0.37-0.78-0.74-1.17-1.11c-5.48,4.4-10.96,8.79-16.45,13.19c-0.49-0.41-0.98-0.81-1.47-1.22 c1.12-2.35,2.23-4.69,4.3-9.05c-5.92,4.01-9.86,8.02-14.59,9.51c-4.6,1.44-10.01,0.31-16.56,0.31c3.83-5.44,6.9-9.8,11.23-15.95 c-9.78,3.57-12.56,12.61-20.9,15.31c2.23-4.21,4.47-8.42,6.7-12.64c-0.37-0.32-0.74-0.64-1.11-0.96c-2.31,2.45-5.13,4.59-6.83,7.42 c-4.68,7.79-11.91,8.62-20.75,8.77c2.19-4.98,4.01-9.11,5.82-13.25c-0.33-0.19-0.66-0.39-0.99-0.59 c-4.46,4.82-8.91,9.65-13.45,14.38c-0.2,0.22-1.28-0.4-2.98-0.99c2.98-5.69,5.91-11.29,8.84-16.89c-0.42-0.3-0.84-0.6-1.26-0.9 c-2.94,3.47-5.88,6.93-10.29,12.13c0-8.48,0-14.83,0-22.02c1.82-0.5,4.18-1.6,6.58-1.72c18.36-0.96,36.74-1.8,55.11-2.54 c26.45-1.06,52.91-1.88,79.36-3.09C322.178,322.12,326.808,320.57,333.468,319.23z M234.848,352.15c1.36-1.5,2.72-3,4.07-4.5 c-0.52-0.45-1.04-0.9-1.57-1.35c-1.23,1.67-2.46,3.34-3.7,5.01C234.048,351.59,234.448,351.87,234.848,352.15z"></path><path style="fill:#F57547;" d="M325.988,373.81c0.44,10.67,0.8,21.35,0.78,32.02c-0.03,12.11-0.04,24.24-0.91,36.3 c-0.69,9.53-1.6,10.16-11.48,11.46c-7.62,1-15.36,1.46-23.06,1.57c-16.12,0.23-32.26,0.07-48.92,0.07c0.2-2.97,0.34-4.98,0.52-7.62 c-11.17,13.52-24.93,5.58-37.33,7.36c-0.43-0.73-0.86-1.46-1.29-2.2c7.15-10.21,14.31-20.43,21.46-30.65 c-0.66-0.49-1.32-0.98-1.98-1.47c-8.14,9.63-16.27,19.26-25.02,29.61c-1.56-4.9-1.93-7.42,1.75-11.24 c8.23-8.55,15.46-18.17,21.33-28.54c-0.62-0.49-1.25-0.98-1.87-1.47c-7.7,8.99-15.41,17.97-24,27.99 c-0.63-9.35,7.34-12.04,10.26-17.72c2.91-5.68,7.2-10.65,10.88-15.93c-0.71-0.55-1.42-1.1-2.13-1.65 c-6.25,7.79-12.49,15.57-18.74,23.36c0.73-14.04,13.84-21.24,17.32-33.94c-7.4,5.32-11.88,13.6-18.52,20.32 c-1.07-6.52-1.02-6.49,6.32-15.93c3.77-4.85,7.34-9.85,11-14.79c-0.58-0.5-1.16-1.01-1.75-1.51c-5.47,5.97-10.95,11.95-16.55,18.06 c-4.6-3.24-2.38-6.57-0.27-10.13c3.48-5.87,6.73-11.88,10.06-17.84c2.43-2.61,5.07-4.33,9.1-4.2c20.6,0.62,41.21,1.04,61.82,1.32 c8.09,0.11,16.19-0.4,24.28-0.5c8.07-0.09,16.15-0.02,25.2-0.02C324.808,368.33,325.868,371.05,325.988,373.81z M225.788,451.12 c5.64-7.66,11.28-15.32,16.92-22.98c-0.59-0.43-1.17-0.86-1.76-1.3c-6.43,7.09-14.31,13.1-17.51,22.55 C224.218,449.97,224.998,450.54,225.788,451.12z"></path><path style="fill:#FBB03B;" d="M302.398,9.42c9.63,4.19,15.17,16.33,11.63,28.09c-2.61,8.66-6.8,16.83-10.98,26.88 c-10.55-12.31-21.25-16.28-36.01-11.8c1.56-11.48,3.17-21.98,7.81-31.87c0.16-0.33,0.38-0.63,0.59-0.93 C281.838,10.88,294.528,6,302.398,9.42z"></path><path style="fill:#FBB03B;" d="M286.898,162.21c16.68,11.47,25.03,37.88,17.89,55.94c-3.87,9.8-17.38,18.87-26.79,17.99 c-11.92-1.13-20.82-10.1-22.78-23.24c-0.59-3.99-0.69-8.06-0.88-12.09c-0.13-2.9-0.03-5.81-0.03-10.11 c6.69,0.11,10-3.03,13.39-7.43C273.488,175.76,280.458,169.15,286.898,162.21z"></path><path style="fill:#C1272D;" d="M293.898,70.36c8.48,11.78,9.5,24.46,5.44,37.75c-3.01,9.84-6.69,19.48-10.31,29.12 c-4.22,11.25-11,20.72-20.37,28.34c-3.98,3.23-7.73,6.72-12.12,10.56c-2.38-1.64-4.71-3.26-7.06-4.85 c-12.57-8.47-25.76-15.41-40.57-19.45c-7.28-1.99-14.63-5.39-20.68-9.87c-12.58-9.29-15.62-22.93-12.63-37.55 c2.53-12.4,13.96-21.21,28.43-22.3c12.81-0.97,25.79-1.45,37.65,5.28c0.93,0.53,2.08,0.76,3.15,0.9c0.68,0.09,1.41-0.25,3.06-0.58 c2.83-10.64,9.17-19.19,19.75-24.33C279.748,57.5,285.968,59.34,293.898,70.36z"></path><path style="fill:#FBB03B;" d="M232.018,26.31c14.74,1.61,24.86,12.69,24.51,27.52c-0.07,2.91-1.77,6.12-3.54,8.6 c-3.39,4.74-7.37,9.06-11.78,14.36c-6.17-1.27-12.21-2.51-18.35-3.77c-1.71-8.04-3.7-15.5-4.77-23.1 c-0.66-4.65-0.59-9.63,0.36-14.22C220.068,27.89,224.168,25.45,232.018,26.31z"></path><path d="M242.708,428.14c-5.64,7.66-11.28,15.32-16.92,22.98c-0.79-0.58-1.57-1.15-2.35-1.73c3.2-9.45,11.08-15.46,17.51-22.55 C241.538,427.28,242.118,427.71,242.708,428.14z"></path><path d="M238.918,347.65c-1.35,1.5-2.71,3-4.07,4.5c-0.4-0.28-0.8-0.56-1.2-0.84c1.24-1.67,2.47-3.34,3.7-5.01 C237.878,346.75,238.398,347.2,238.918,347.65z"></path><path style="fill:#FBB03B;" d="M244.018,178.91c-2.44,20.83-6.75,39.28-25.38,50.82c-11.91,7.38-26.07,0.53-27.54-13.55 c-1.01-9.69,0.78-19.14,4.4-28.07c3.58-8.81,7.88-17.33,12.82-28.03C220.998,166.77,232.258,172.7,244.018,178.91z"></path><path style="fill:#FBB03B;" d="M203.478,52.5c4.19,5.76,6.78,12.68,9.82,18.57c-11.65,2.97-22.18,5.65-34.42,8.77 c-6.83-6.98-17.62-13.34-20.33-26.37c-1.45-6.93-3.27-14.43,2.62-19.69c5.91-5.28,13.4-2.83,19.89-0.28 C190.558,37.24,197.648,44.49,203.478,52.5z"></path><path style="fill:#006837;" d="M200.798,262.79c4.75,4.27,9.42,8.61,15.34,14.04c-9.07,2.74-17.62-1.57-25.08,6.91 c8.21,0.79,14.76,1.42,21.65,2.09c-17.6,24.39-57.17,15.07-74.53-16.58c10.44-3.95,20.71-8.58,31.43-11.69 C180.498,254.39,191.538,254.46,200.798,262.79z"></path><path d="M203.918,369.18c-0.02,0.04-0.04,0.08-0.07,0.12c-0.09,0.09-0.17,0.18-0.26,0.28c0-0.01-0.01-0.01-0.01-0.02 C203.688,369.43,203.808,369.31,203.918,369.18z"></path><path style="fill:#F57547;" d="M201.548,365.79c0.57-0.05,1.35,2.45,2.03,3.77c-3.76,4.13-7.55,8.3-12.48,13.71 c-1.27-5.64-2.3-10.2-3.45-15.33C192.998,367.04,197.248,366.17,201.548,365.79z"></path><path style="fill:#FBB03B;" d="M195.758,160.27c-3.57,10.06-13.3,17.2-22.09,24.64c-10.17,8.6-22.31,14.11-35.47,17.03 c-8.8,1.96-18.22-0.97-22.6-7.5c-5.07-7.54-3.27-15.18,1.82-21.5c6.19-7.66,12.97-15.05,20.48-21.39 c8.9-7.52,18.85-13.79,27.38-19.9C176.448,142.14,185.658,150.79,195.758,160.27z"></path><path style="fill:#FBB03B;" d="M165.678,120.29c-0.73,1.04-1.05,2.04-1.56,2.16c-14.9,3.39-29.58,9.01-45.23,5.87 c-4.59-0.92-9.18-2.81-13.26-5.15c-8.76-5.03-11.03-12.45-6.43-21.6c13.62-27.04,50.81-36.53,73.97-14.05 C167.098,97.66,162.378,108.34,165.678,120.29z"></path></g></svg>